<svg id="圖層_1" data-name="圖層 1" xmlns="http://www.w3.org/2000/svg" viewBox="0 0 141.73 161.62"><defs><style>.cls-1{fill:#231f20;}</style></defs><title>miniease_logo</title><path class="cls-1" d="M259.31,458.4a58,58,0,1,0-65.12,65.12A58.21,58.21,0,0,0,259.31,458.4Zm-54.4-40.68a3,3,0,0,1,3.33-3,51.68,51.68,0,0,1,34.85,20.25,2,2,0,0,1-1.54,3.17H209.2a4.3,4.3,0,0,1-4.3-4.3V417.73Zm15,35.73,23,24.47a1.55,1.55,0,0,1-1.13,2.61H220.3a3.22,3.22,0,0,1-3.22-3.22V454.58A1.63,1.63,0,0,1,219.9,453.46Zm-12.28-9a3.16,3.16,0,0,1,3.16,3.16v29.81a3.16,3.16,0,0,1-3.16,3.16H194.84a3.16,3.16,0,0,1-3.16-3.16V447.57a3.16,3.16,0,0,1,3.16-3.16h12.77Zm-47.19-9.46a51.68,51.68,0,0,1,34.85-20.25,3,3,0,0,1,3.33,3v16.08a4.3,4.3,0,0,1-4.3,4.3H162A2,2,0,0,1,160.43,434.94Zm25,19.64v22.74a3.22,3.22,0,0,1-3.22,3.22H160.71a1.55,1.55,0,0,1-1.13-2.61l23-24.46A1.63,1.63,0,0,1,185.39,454.58Zm-34.84,18.64A50.06,50.06,0,0,1,150,466a51.17,51.17,0,0,1,3.7-19.08,4,4,0,0,1,3.76-2.47h20.88a1.76,1.76,0,0,1,1.28,3l-25.36,27A2.17,2.17,0,0,1,150.55,473.22ZM170.28,507A52.06,52.06,0,0,1,156,490.06a2.17,2.17,0,0,1,1.89-3.22h22.33a2.25,2.25,0,0,1,2,3.21L174.71,506A2.91,2.91,0,0,1,170.28,507Zm50.32,7.11a51,51,0,0,1-38.61-.37,3.39,3.39,0,0,1-1.82-4.57L189.74,489a3.74,3.74,0,0,1,3.38-2.14h16.23a3.74,3.74,0,0,1,3.38,2.14l9.73,20.52A3.39,3.39,0,0,1,220.6,514.09Zm26.89-24a52,52,0,0,1-15.08,17.5,2.91,2.91,0,0,1-4.39-1L220.2,490a2.25,2.25,0,0,1,2-3.21h23.37A2.17,2.17,0,0,1,247.49,490.06Zm5.31-15.88a2.17,2.17,0,0,1-3.72,1.13l-26.25-27.94a1.76,1.76,0,0,1,1.28-3H246a4,4,0,0,1,3.76,2.47,51.18,51.18,0,0,1,3.7,19.08A49.74,49.74,0,0,1,252.79,474.19Z" transform="translate(-131.91 -407.93)"/><path class="cls-1" d="M163,545.6a2.19,2.19,0,0,0-2.2,2.2v19.53a2.2,2.2,0,1,0,4.39,0V547.8A2.19,2.19,0,0,0,163,545.6Z" transform="translate(-131.91 -407.93)"/><path class="cls-1" d="M163,537.79a2.69,2.69,0,1,0,2.69,2.69A2.65,2.65,0,0,0,163,537.79Z" transform="translate(-131.91 -407.93)"/><path class="cls-1" d="M191.91,537.79a2.69,2.69,0,1,0,2.69,2.69A2.65,2.65,0,0,0,191.91,537.79Z" transform="translate(-131.91 -407.93)"/><path class="cls-1" d="M191.91,545.6a2.19,2.19,0,0,0-2.2,2.2v19.53a2.2,2.2,0,0,0,4.4,0V547.8A2.19,2.19,0,0,0,191.91,545.6Z" transform="translate(-131.91 -407.93)"/><path class="cls-1" d="M215.35,545.6a7.09,7.09,0,0,0-7.08,7.08v9.77a6.93,6.93,0,0,0,4.39,6.54,7.08,7.08,0,0,0,7.71-1.51,2.24,2.24,0,0,0,0-3.12,2.21,2.21,0,0,0-1.61-.68,2.08,2.08,0,0,0-1.51.68,2.71,2.71,0,0,1-2.93.59,2.65,2.65,0,0,1-1.66-2.49v-2.69h7.57a2.19,2.19,0,0,0,2.2-2.2v-4.88A7.09,7.09,0,0,0,215.35,545.6Zm2.69,9.77h-5.37v-2.69a2.69,2.69,0,1,1,5.37,0v2.69Z" transform="translate(-131.91 -407.93)"/><path class="cls-1" d="M234.68,546.14a6.84,6.84,0,0,0-7.57,1.51,2.13,2.13,0,0,0,0,3.13,2,2,0,0,0,1.51.63,2.06,2.06,0,0,0,1.56-.63,2.55,2.55,0,0,1,2.83-.59,2.6,2.6,0,0,1,1.61,2.39v2.59h-2.68a7.08,7.08,0,1,0,0,14.16h4.88a2.19,2.19,0,0,0,2.2-2.2V552.59A6.88,6.88,0,0,0,234.68,546.14Zm0,18.8h-2.68a2.69,2.69,0,0,1,0-5.37h2.68v5.37Z" transform="translate(-131.91 -407.93)"/><path class="cls-1" d="M252.94,557.18L248.4,554a2.31,2.31,0,0,1-.93-1.66A2.21,2.21,0,0,1,250,550a2,2,0,0,1,1.56,1.08,2.21,2.21,0,0,0,3,.78,2.14,2.14,0,0,0,.83-3,6.69,6.69,0,0,0-4.69-3.22,6.59,6.59,0,0,0-5.47,1.61,6.52,6.52,0,0,0-2.15,5.32,6.76,6.76,0,0,0,2.78,5l4.59,3.17a2.19,2.19,0,0,1,1,1.81,2.15,2.15,0,0,1-.78,1.9,2.12,2.12,0,0,1-2,.59,2.09,2.09,0,0,1-1.71-1.17,2.24,2.24,0,0,0-3-.78,2.21,2.21,0,0,0-.78,3,6.77,6.77,0,0,0,12.65-3.81A6.77,6.77,0,0,0,252.94,557.18Z" transform="translate(-131.91 -407.93)"/><path class="cls-1" d="M266.56,545.6a7.08,7.08,0,0,0-7.08,7.08v9.77a6.93,6.93,0,0,0,4.39,6.54,7.08,7.08,0,0,0,7.71-1.51,2.24,2.24,0,0,0,0-3.12,2.21,2.21,0,0,0-1.61-.68,2.08,2.08,0,0,0-1.51.68,2.71,2.71,0,0,1-2.93.59,2.65,2.65,0,0,1-1.66-2.49v-2.69h7.57a2.19,2.19,0,0,0,2.2-2.2v-4.88A7.09,7.09,0,0,0,266.56,545.6Zm2.69,9.77h-5.37v-2.69a2.69,2.69,0,1,1,5.37,0v2.69Z" transform="translate(-131.91 -407.93)"/><path class="cls-1" d="M149.17,545.8a6,6,0,0,0-5.09,2.31,4.45,4.45,0,0,0-4.36-2.31,4.19,4.19,0,0,0-3.36,2.28H136.3V547.8a2.2,2.2,0,0,0-4.39,0v19.53a2.22,2.22,0,0,0,.06.49l0,0.07a2.16,2.16,0,0,0,.15.41v0a2.18,2.18,0,0,0,2,1.21h0.12a2.27,2.27,0,0,0,.41-0.06h0l0.06,0a2.18,2.18,0,0,0,1.58-2.1V552.88a2.68,2.68,0,0,1,2.69-2.68h0.18a2.5,2.5,0,0,1,2.5,2.5v14.49a2.32,2.32,0,0,0,1.64,2.27,2.21,2.21,0,0,0,2.75-2.12V552.7a2.5,2.5,0,0,1,2.5-2.5h0.18a2.69,2.69,0,0,1,2.69,2.68v14.31a2.32,2.32,0,0,0,1.64,2.27,2.21,2.21,0,0,0,2.75-2.12V552.88C155.83,549,153.82,545.8,149.17,545.8Z" transform="translate(-131.91 -407.93)"/><path class="cls-1" d="M178.5,545.81a4.45,4.45,0,0,0-3.74,2.24H174.7a2.13,2.13,0,0,0-2.18-2.45,2.19,2.19,0,0,0-2.2,2.2v19.53a2.2,2.2,0,0,0,.06.49l0,0.07a2.15,2.15,0,0,0,.15.41v0a2.18,2.18,0,0,0,2,1.21h0.12a2.29,2.29,0,0,0,.4-0.06h0l0.07,0a2.18,2.18,0,0,0,1.57-2.1V552.88a2.68,2.68,0,0,1,2.69-2.68h0.25a2.69,2.69,0,0,1,2.69,2.68v14.31a2.32,2.32,0,0,0,1.64,2.27,2.21,2.21,0,0,0,2.75-2.12V552.88C184.74,549,183,545.51,178.5,545.81Z" transform="translate(-131.91 -407.93)"/></svg>