<svg xmlns="http://www.w3.org/2000/svg" viewBox="0 0 32 32"><defs><style>.cls-1{fill:#231f20;}</style></defs><title>White</title><g id="Layer_2" data-name="Layer 2"><g id="White"><path id="White-2" data-name="White" class="cls-1" d="M30.23,0H1.77A1.77,1.77,0,0,0,0,1.77V30.23A1.77,1.77,0,0,0,1.77,32H17.09V19.61H12.92V14.78h4.17V11.22c0-4.13,2.52-6.38,6.21-6.38A34.22,34.22,0,0,1,27,5V9.34H24.47c-2,0-2.39,1-2.39,2.35v3.08h4.78l-.62,4.83H22.08V32h8.15A1.77,1.77,0,0,0,32,30.23V1.77A1.77,1.77,0,0,0,30.23,0Z"/></g></g></svg>