<?xml version="1.0" encoding="utf-8"?>
<!-- Generator: Adobe Illustrator 19.2.1, SVG Export Plug-In . SVG Version: 6.00 Build 0)  -->
<svg version="1.1" id="Layer_1" xmlns="http://www.w3.org/2000/svg" xmlns:xlink="http://www.w3.org/1999/xlink" x="0px" y="0px"
	 viewBox="0 0 90 20" style="enable-background:new 0 0 90 20;" xml:space="preserve">
<style type="text/css">
	.st0{fill:#231F20;}
</style>
<path class="st0" d="M20,4.9c-0.8,0-1.4,0.6-1.4,1.4v12.3c0,0.8,0.6,1.4,1.4,1.4c0.8,0,1.4-0.6,1.4-1.4V6.3
	C21.3,5.5,20.7,4.9,20,4.9z"/>
<path class="st0" d="M20,0c-1,0-1.7,0.7-1.7,1.7c0,1,0.7,1.7,1.7,1.7c1,0,1.7-0.7,1.7-1.7C21.6,0.7,20.9,0,20,0z"/>
<path class="st0" d="M38.2,0c-1,0-1.7,0.7-1.7,1.7c0,1,0.7,1.7,1.7,1.7c1,0,1.7-0.7,1.7-1.7C39.8,0.7,39.1,0,38.2,0z"/>
<path class="st0" d="M38.2,4.9c-0.8,0-1.4,0.6-1.4,1.4v12.3c0,0.8,0.6,1.4,1.4,1.4c0.8,0,1.4-0.6,1.4-1.4V6.3
	C39.5,5.5,38.9,4.9,38.2,4.9z"/>
<path class="st0" d="M52.9,4.9c-2.5,0-4.5,2-4.5,4.5v6.2c0,1.8,1,3.4,2.8,4.1c1.7,0.7,3.5,0.3,4.9-1c0.3-0.3,0.4-0.6,0.4-1
	c0-0.4-0.1-0.7-0.4-1c-0.3-0.3-0.6-0.4-1-0.4c-0.4,0-0.7,0.2-1,0.4c-0.5,0.5-1.2,0.6-1.8,0.4c-0.6-0.3-1-0.9-1-1.6v-1.7H56
	c0.8,0,1.4-0.6,1.4-1.4V9.4C57.4,6.9,55.4,4.9,52.9,4.9z M54.6,11.1h-3.4V9.4c0-1,0.7-1.7,1.7-1.7c1,0,1.7,0.7,1.7,1.7V11.1z"/>
<path class="st0" d="M65.1,5.3c-1.6-0.7-3.5-0.3-4.8,1c-0.3,0.3-0.4,0.6-0.4,1c0,0.4,0.2,0.7,0.4,1c0.3,0.3,0.6,0.4,1,0.4
	c0.4,0,0.7-0.1,1-0.4c0.5-0.5,1.2-0.6,1.8-0.4c0.6,0.2,1,0.9,1,1.5v1.6h-1.7c-2.5,0-4.5,2-4.5,4.5c0,2.5,2,4.5,4.5,4.5h3.1
	c0.8,0,1.4-0.6,1.4-1.4V9.3C67.8,7.5,66.8,6,65.1,5.3z M65.1,17.1h-1.7c-1,0-1.7-0.7-1.7-1.7c0-1,0.7-1.7,1.7-1.7h1.7V17.1z"/>
<path class="st0" d="M76.6,12.2l-2.9-2c-0.3-0.3-0.6-0.6-0.6-1c0-0.5,0.1-0.8,0.5-1.1c0.3-0.3,0.7-0.4,1.1-0.3
	c0.4,0.1,0.8,0.3,1,0.7C76.1,9,77,9.3,77.6,8.9c0.7-0.4,0.9-1.2,0.5-1.9c-0.6-1.1-1.7-1.8-3-2c-1.3-0.2-2.5,0.2-3.4,1
	c-1,0.9-1.4,2.1-1.4,3.4c0.1,1.3,0.7,2.4,1.8,3.1l2.9,2c0.4,0.2,0.6,0.6,0.6,1.1c0,0.5-0.1,0.9-0.5,1.2c-0.4,0.3-0.8,0.5-1.2,0.4
	c-0.5-0.1-0.9-0.3-1.1-0.7c-0.4-0.6-1.2-0.9-1.9-0.5c-0.6,0.4-0.9,1.2-0.5,1.9c0.6,1.1,1.7,1.9,3,2.1c1.3,0.2,2.6-0.2,3.5-1
	c1-0.9,1.5-2.1,1.4-3.4C78.3,14.1,77.7,13,76.6,12.2z"/>
<path class="st0" d="M85.2,4.9c-2.5,0-4.5,2-4.5,4.5v6.2c0,1.8,1,3.4,2.8,4.1c1.7,0.7,3.5,0.3,4.9-1c0.3-0.3,0.4-0.6,0.4-1
	c0-0.4-0.1-0.7-0.4-1c-0.3-0.3-0.6-0.4-1-0.4c-0.4,0-0.7,0.2-1,0.4c-0.5,0.5-1.2,0.6-1.8,0.4c-0.6-0.3-1-0.9-1-1.6v-1.7h4.8
	c0.8,0,1.4-0.6,1.4-1.4V9.4C89.6,6.9,87.6,4.9,85.2,4.9z M86.9,11.1h-3.4V9.4c0-1,0.7-1.7,1.7-1.7c1,0,1.7,0.7,1.7,1.7V11.1z"/>
<path class="st0" d="M11.2,5C9,5,8,6.5,8,6.5S7.2,4.8,5.3,5c-1,0.1-1.7,0.7-2.1,1.4h0V6.3c0-0.8-0.6-1.4-1.4-1.4
	C1,4.9,0.4,5.5,0.4,6.3v4.4v7.9c0,0.1,0,0.2,0,0.3c0,0,0,0,0,0c0,0.1,0.1,0.2,0.1,0.3c0,0,0,0,0,0C0.7,19.7,1.2,20,1.7,20
	c0,0,0,0,0,0c0,0,0,0,0.1,0c0.1,0,0.2,0,0.3,0c0,0,0,0,0,0c0,0,0,0,0,0c0.6-0.2,1-0.7,1-1.3v-0.1v-9c0-0.9,0.8-1.7,1.7-1.7h0.1
	c0.9,0,1.6,0.7,1.6,1.6v9.1c0,0.7,0.4,1.3,1,1.4c0.9,0.2,1.7-0.4,1.7-1.3V9.4c0-0.9,0.7-1.6,1.6-1.6H11c0.9,0,1.7,0.8,1.7,1.7v9
	c0,0.7,0.4,1.3,1,1.4c0.9,0.2,1.7-0.4,1.7-1.3V9.5C15.4,7,14.2,5,11.2,5z"/>
<path class="st0" d="M29.7,5c-1.1,0.1-2.1,0.7-2.4,1.4h0c0-1.1-0.6-1.5-1.4-1.5c-0.8,0-1.4,0.6-1.4,1.4v4.4v7.9c0,0.1,0,0.2,0,0.3
	c0,0,0,0,0,0c0,0.1,0.1,0.2,0.1,0.3c0,0,0,0,0,0c0.2,0.5,0.7,0.8,1.2,0.8c0,0,0,0,0,0c0,0,0,0,0.1,0c0.1,0,0.2,0,0.3,0c0,0,0,0,0,0
	c0,0,0,0,0,0c0.6-0.2,1-0.7,1-1.3v-0.1v-9c0-0.9,0.8-1.7,1.7-1.7h0h0.1h0c0.9,0,1.7,0.8,1.7,1.7v9c0,0.7,0.4,1.3,1,1.4
	c0.9,0.2,1.7-0.4,1.7-1.3V9.5C33.6,7.1,32.5,4.9,29.7,5z"/>
</svg>
